<svg width="1426" height="1348" viewBox="0 0 1426 1348" fill="none" xmlns="http://www.w3.org/2000/svg">
<g filter="url(#filter0_dd_66_22)">
<path fill-rule="evenodd" clip-rule="evenodd" d="M782.72 971.909C499.955 968.815 214.408 935.246 6.61633 822.012C-209.248 704.379 -390.089 533.597 -332.401 364.234C-278.535 206.09 60.0313 166.639 266.021 60.4365C447.611 -33.1861 545.502 -198.199 786.045 -212.408C1036.92 -227.227 1247.17 -112.606 1426.82 -8.13178C1608.62 97.5854 1760.64 220.849 1787.88 370.187C1818.37 537.311 1781.28 719.587 1581.39 839.244C1379.97 959.821 1070.5 975.058 782.72 971.909Z" fill="#380070" fill-opacity="0.69"/>
<path fill-rule="evenodd" clip-rule="evenodd" d="M768.253 1052.55C514.353 1060.09 303.168 958.653 122.008 860.314C-61.2876 760.816 -226.286 645.276 -241.821 504.251C-258.218 355.402 -197.516 176.259 38.5888 103.037C264.091 33.104 517.839 157.928 770.674 190.253C931.168 210.771 1097.29 202.622 1231.17 255.505C1393.84 319.764 1556.99 400.128 1578.53 509.362C1601.68 626.724 1479.24 732.861 1343.28 824.001C1187.43 928.477 1014.27 1045.23 768.253 1052.55Z" fill="#6B1313" fill-opacity="0.9"/>
<path fill-rule="evenodd" clip-rule="evenodd" d="M771.655 834.835C517.755 842.385 306.57 740.942 125.41 642.604C-57.8858 543.106 -222.885 427.565 -238.42 286.54C-254.816 137.692 -194.114 -41.4515 41.9906 -114.673C267.493 -184.606 521.241 -59.782 774.076 -27.4576C934.57 -6.93887 1100.69 -15.0885 1234.57 37.7951C1397.25 102.054 1560.39 182.418 1581.93 291.651C1605.08 409.014 1482.64 515.151 1346.68 606.291C1190.83 710.767 1017.67 827.52 771.655 834.835Z" fill="#3D0137" fill-opacity="0.9"/>
<path fill-rule="evenodd" clip-rule="evenodd" d="M766.31 970.533C579.153 977.571 410.903 906.106 283.173 823.761C160.171 744.464 69.251 641.403 89.38 534.128C108.085 434.442 272.218 379.674 380.82 303.362C508.018 213.984 575.146 76.2592 768.876 56.6645C975.531 35.7625 1175.93 116.523 1318.93 208.477C1457.3 297.453 1544.45 417.946 1517.61 538.138C1493.1 647.869 1322.38 713.002 1189.13 789.693C1059.36 864.382 946.326 963.764 766.31 970.533Z" fill="#FF5D5D" fill-opacity="0.19"/>
<path fill-rule="evenodd" clip-rule="evenodd" d="M668.855 914.808C470.622 918.087 324.546 828.125 193.734 752.53C73.6966 683.161 -21.1131 603.576 -28.6985 511.698C-36.6243 415.697 3.21287 309.703 152.274 250.345C293.425 194.136 491.059 238.819 670.768 233.16C876.578 226.679 1082.69 166.015 1264.81 215.314C1493.51 277.225 1756.2 387.29 1717.82 516.602C1679.29 646.388 1317.25 658.637 1109.83 737.376C953.654 796.665 864.484 911.572 668.855 914.808Z" fill="#272424" fill-opacity="0.9"/>
</g>
<defs>
<filter id="filter0_dd_66_22" x="-513.256" y="-258.708" width="2480.56" height="1606.65" filterUnits="userSpaceOnUse" color-interpolation-filters="sRGB">
<feFlood flood-opacity="0" result="BackgroundImageFix"/>
<feColorMatrix in="SourceAlpha" type="matrix" values="0 0 0 0 0 0 0 0 0 0 0 0 0 0 0 0 0 0 127 0" result="hardAlpha"/>
<feOffset dy="4"/>
<feGaussianBlur stdDeviation="2"/>
<feComposite in2="hardAlpha" operator="out"/>
<feColorMatrix type="matrix" values="0 0 0 0 0 0 0 0 0 0 0 0 0 0 0 0 0 0 0.25 0"/>
<feBlend mode="normal" in2="BackgroundImageFix" result="effect1_dropShadow_66_22"/>
<feColorMatrix in="SourceAlpha" type="matrix" values="0 0 0 0 0 0 0 0 0 0 0 0 0 0 0 0 0 0 127 0" result="hardAlpha"/>
<feOffset dy="125"/>
<feGaussianBlur stdDeviation="85"/>
<feComposite in2="hardAlpha" operator="out"/>
<feColorMatrix type="matrix" values="0 0 0 0 1 0 0 0 0 0.96 0 0 0 0 0 0 0 0 0.21 0"/>
<feBlend mode="normal" in2="effect1_dropShadow_66_22" result="effect2_dropShadow_66_22"/>
<feBlend mode="normal" in="SourceGraphic" in2="effect2_dropShadow_66_22" result="shape"/>
</filter>
</defs>
</svg>
