<?xml version="1.0" encoding="UTF-8" standalone="no"?>
<!DOCTYPE svg PUBLIC "-//W3C//DTD SVG 1.1//EN" "http://www.w3.org/Graphics/SVG/1.1/DTD/svg11.dtd">
<svg width="100%" height="100%" viewBox="0 0 1426 1047" version="1.1" xmlns="http://www.w3.org/2000/svg" xmlns:xlink="http://www.w3.org/1999/xlink" xml:space="preserve" xmlns:serif="http://www.serif.com/" style="fill-rule:evenodd;clip-rule:evenodd;stroke-linejoin:round;stroke-miterlimit:2;">
    <g>
        <path d="M830.95,1078.26C532.772,1075.05 169.658,1163.8 -49.467,1047C-277.105,925.664 -248.815,533.13 -187.994,358.46C-131.202,195.36 23.817,203.695 241.028,94.175C432.509,-2.371 535.726,-172.552 789.38,-187.19C1053.93,-202.458 1275.64,-84.23 1465.1,23.533C1656.81,132.576 1601.13,157.715 1629.86,311.737C1662.02,484.104 1734.15,888.748 1523.38,1012.14C1310.99,1136.49 1134.42,1081.53 830.95,1078.26Z" style="fill:rgb(80,0,0);"/>
        <path d="M710.314,1011.76C456.415,1019.08 245.222,920.487 64.054,824.916C-119.249,728.219 -284.257,615.933 -299.803,478.896C-316.212,334.258 -255.524,160.187 -19.425,89.056C206.072,21.119 459.829,142.432 712.667,173.862C873.163,193.813 1039.28,185.907 1173.17,237.305C1335.85,299.759 1499,377.862 1520.55,484.007C1543.7,598.052 1421.27,701.177 1285.32,789.727C1129.48,891.235 956.328,1004.67 710.314,1011.76Z" style="fill:rgb(107,19,19);fill-opacity:0.9;"/>
        <path d="M710.314,1011.76C456.415,1019.08 245.222,920.487 64.054,824.916C-119.249,728.219 -284.257,615.933 -299.803,478.896C-316.212,334.258 -255.524,160.187 -19.425,89.056C206.072,21.119 459.829,142.432 712.667,173.862C873.163,193.813 1039.28,185.907 1173.17,237.305C1335.85,299.759 1499,377.862 1520.55,484.007C1543.7,598.052 1421.27,701.177 1285.32,789.727C1129.48,891.235 956.328,1004.67 710.314,1011.76Z" style="fill:rgb(107,19,19);fill-opacity:0.9;"/>
        <g transform="matrix(1,0,0,1,71.242,318)">
            <path d="M710.314,1011.76C456.415,1019.08 245.222,920.487 64.054,824.916C-119.249,728.219 -284.257,615.933 -299.803,478.896C-316.212,334.258 -255.524,160.187 -19.425,89.056C206.072,21.119 459.829,142.432 712.667,173.862C873.163,193.813 1039.28,185.907 1173.17,237.305C1335.85,299.759 1499,377.862 1520.55,484.007C1543.7,598.052 1421.27,701.177 1285.32,789.727C1129.48,891.235 956.328,1004.67 710.314,1011.76Z" style="fill:rgb(43,19,19);fill-opacity:0.9;"/>
        </g>
        <path d="M713.911,724.598C460.014,731.081 248.793,642.644 67.597,556.921C-115.734,470.188 -280.775,369.488 -296.361,246.643C-312.811,116.984 -252.174,-39.036 -16.096,-102.73C209.381,-163.563 463.173,-54.744 716.02,-26.496C876.521,-8.565 1042.64,-15.604 1176.54,30.509C1339.24,86.539 1502.41,156.599 1523.99,251.754C1547.18,353.99 1424.78,446.396 1288.86,525.733C1133.04,616.68 959.922,718.315 713.911,724.598Z" style="fill:rgb(61,1,55);fill-opacity:0.9;"/>
        <path d="M705.258,917.257C518.1,924.37 352.852,905.197 225.124,822.033C102.125,741.948 11.208,637.86 31.34,529.514C50.048,428.832 214.182,373.513 322.786,296.436C449.986,206.162 517.119,67.06 710.849,47.265C917.504,26.148 1117.91,107.709 1260.9,200.578C1399.26,290.438 1486.41,412.131 1459.57,533.524C1435.06,644.351 1264.34,710.139 1131.08,787.6C1001.31,863.038 885.274,910.415 705.258,917.257Z" style="fill:rgb(255,93,93);fill-opacity:0.19;"/>
        <path d="M603.84,834.22C405.607,837.575 266.536,812.85 135.728,735.775C15.694,665.047 -79.111,583.901 -86.691,490.215C-94.612,392.325 -37.769,253.243 111.296,192.709C252.45,135.386 433.081,211.937 612.791,206.157C818.601,199.537 1024.72,137.667 1206.83,187.926C1435.53,251.044 1698.22,363.26 1659.82,495.119C1621.29,627.461 1322.25,642.971 1114.83,723.272C958.645,783.736 799.469,830.91 603.84,834.22Z" style="fill:rgb(39,36,36);fill-opacity:0.9;"/>
    </g>
</svg>
