<svg width="1426" height="1047" viewBox="0 0 1426 1047" fill="none" xmlns="http://www.w3.org/2000/svg">
<g filter="url(#filter0_d_66_22)">
<path fill-rule="evenodd" clip-rule="evenodd" d="M785.95 1034.26C487.772 1031.05 186.658 996.412 -32.4672 879.614C-260.105 758.278 -450.815 582.13 -389.994 407.46C-333.202 244.36 23.8168 203.695 241.028 94.1754C432.509 -2.37103 535.726 -172.552 789.38 -187.19C1053.93 -202.458 1275.64 -84.2297 1465.1 23.5325C1656.81 132.576 1817.13 259.715 1845.86 413.737C1878.02 586.104 1838.92 774.093 1628.15 897.489C1415.76 1021.83 1089.42 1037.53 785.95 1034.26Z" fill="#380070" fill-opacity="0.69"/>
<path fill-rule="evenodd" clip-rule="evenodd" d="M710.314 1011.76C456.415 1019.08 245.222 920.487 64.0539 824.916C-119.249 728.219 -284.257 615.933 -299.803 478.896C-316.212 334.258 -255.524 160.187 -19.4251 89.0556C206.072 21.1185 459.829 142.432 712.667 173.862C873.163 193.813 1039.28 185.907 1173.17 237.305C1335.85 299.759 1499 377.862 1520.55 484.007C1543.7 598.052 1421.27 701.177 1285.32 789.727C1129.48 891.235 956.328 1004.67 710.314 1011.76Z" fill="#6B1313" fill-opacity="0.9"/>
<path fill-rule="evenodd" clip-rule="evenodd" d="M713.911 724.598C460.014 731.081 248.793 642.644 67.5969 556.921C-115.734 470.188 -280.775 369.488 -296.361 246.643C-312.811 116.984 -252.174 -39.0361 -16.0962 -102.73C209.381 -163.563 463.173 -54.7437 716.02 -26.4963C876.521 -8.56546 1042.64 -15.6039 1176.54 30.5085C1339.24 86.5392 1502.41 156.599 1523.99 251.754C1547.18 353.99 1424.78 446.396 1288.86 525.733C1133.04 616.68 959.922 718.315 713.911 724.598Z" fill="#3D0137" fill-opacity="0.9"/>
<path fill-rule="evenodd" clip-rule="evenodd" d="M708.258 970.257C521.1 977.37 352.852 905.197 225.124 822.033C102.125 741.948 11.2077 637.86 31.3398 529.514C50.0476 428.832 214.182 373.513 322.786 296.436C449.986 206.162 517.119 67.0604 710.849 47.2646C917.504 26.1482 1117.91 107.709 1260.9 200.578C1399.26 290.438 1486.41 412.131 1459.57 533.524C1435.06 644.351 1264.34 710.139 1131.08 787.6C1001.31 863.038 888.274 963.415 708.258 970.257Z" fill="#FF5D5D" fill-opacity="0.19"/>
<path fill-rule="evenodd" clip-rule="evenodd" d="M610.84 901.22C412.607 904.575 266.536 812.85 135.728 735.775C15.6943 665.047 -79.1109 583.901 -86.6913 490.215C-94.6118 392.325 -54.7687 284.243 94.2955 223.709C235.45 166.386 433.081 211.937 612.791 206.157C818.601 199.537 1024.72 137.667 1206.83 187.926C1435.53 251.044 1698.22 363.26 1659.82 495.119C1621.29 627.461 1259.25 639.971 1051.83 720.272C895.645 780.736 806.469 897.91 610.84 901.22Z" fill="#272424" fill-opacity="0.9"/>
</g>
<defs>
<filter id="filter0_d_66_22" x="-409.436" y="-192.528" width="2273.24" height="1239.17" filterUnits="userSpaceOnUse" color-interpolation-filters="sRGB">
<feFlood flood-opacity="0" result="BackgroundImageFix"/>
<feColorMatrix in="SourceAlpha" type="matrix" values="0 0 0 0 0 0 0 0 0 0 0 0 0 0 0 0 0 0 127 0" result="hardAlpha"/>
<feOffset dy="4"/>
<feGaussianBlur stdDeviation="4"/>
<feComposite in2="hardAlpha" operator="out"/>
<feColorMatrix type="matrix" values="0 0 0 0 0 0 0 0 0 0 0 0 0 0 0 0 0 0 0.25 0"/>
<feBlend mode="normal" in2="BackgroundImageFix" result="effect1_dropShadow_66_22"/>
<feBlend mode="normal" in="SourceGraphic" in2="effect1_dropShadow_66_22" result="shape"/>
</filter>
</defs>
</svg>
