<svg width="1440" height="1414" viewBox="0 0 1440 1414" fill="none" xmlns="http://www.w3.org/2000/svg">
<g filter="url(#filter0_dd_108_80)">
<path fill-rule="evenodd" clip-rule="evenodd" d="M751.415 -196.974C1028.67 -194.422 1308.74 -158.072 1512.79 -33.103C1724.77 96.7208 1902.55 285.614 1846.46 473.677C1794.08 649.281 1462.22 694.1 1260.54 812.558C1082.75 916.984 987.226 1100.35 751.415 1116.86C505.47 1134.08 299.013 1007.58 122.574 892.24C-55.9635 775.529 -205.364 639.26 -232.484 473.677C-262.835 288.372 -226.968 86.0495 -31.3123 -47.3142C165.848 -181.704 469.24 -199.571 751.415 -196.974Z" fill="#380070" fill-opacity="0.69"/>
<path fill-rule="evenodd" clip-rule="evenodd" d="M765.378 -286.472C1014.3 -295.638 1221.65 -183.761 1399.54 -75.2334C1579.54 34.5732 1741.64 162.234 1757.26 318.632C1773.74 483.706 1714.72 682.627 1483.42 764.591C1262.51 842.874 1013.37 705.19 765.378 670.119C607.958 647.856 445.102 657.414 313.688 599.165C154.008 528.387 -6.17565 439.743 -27.5981 318.632C-50.6149 188.508 69.1448 70.3833 202.196 -31.1457C354.717 -147.532 524.183 -277.591 765.378 -286.472Z" fill="#6B1313" fill-opacity="0.9"/>
<path fill-rule="evenodd" clip-rule="evenodd" d="M762.641 -44.9454C1011.57 -54.1111 1218.91 57.766 1396.81 166.294C1576.8 276.1 1738.9 403.761 1754.52 560.159C1771.01 725.233 1711.98 924.154 1480.69 1006.12C1259.77 1084.4 1010.63 946.717 762.641 911.646C605.222 889.383 442.366 898.942 310.952 840.692C151.272 769.914 -8.91175 681.27 -30.3342 560.159C-53.351 430.035 66.4087 311.91 199.46 210.381C351.981 93.9955 521.447 -36.0643 762.641 -44.9454Z" fill="#3D0137" fill-opacity="0.9"/>
<path fill-rule="evenodd" clip-rule="evenodd" d="M767.508 -195.498C950.995 -203.889 1116.16 -125.134 1241.62 -34.1816C1362.45 53.4034 1451.88 167.451 1432.43 286.519C1414.37 397.163 1253.59 458.432 1147.31 543.426C1022.84 642.974 957.405 795.968 767.508 818.309C564.942 842.14 368.227 753.173 227.767 651.609C91.8554 553.334 6.06983 419.937 32.0572 286.519C55.7826 164.713 222.991 91.9256 353.434 6.43266C480.471 -76.8276 591.022 -187.428 767.508 -195.498Z" fill="#FF5D5D" fill-opacity="0.19"/>
<path fill-rule="evenodd" clip-rule="evenodd" d="M979.053 7.18829C1173.41 2.93311 1316.88 102.278 1445.35 185.731C1563.24 262.312 1656.42 350.305 1664.11 452.206C1672.14 558.679 1633.38 676.388 1487.39 742.701C1349.14 805.496 1155.24 756.543 979.053 763.38C777.277 771.21 575.348 839.151 396.653 785.028C172.239 717.059 -85.6307 595.777 -48.3496 452.206C-10.9317 308.108 344.012 293.392 547.166 205.396C700.135 139.138 787.249 11.3876 979.053 7.18829Z" fill="#272424" fill-opacity="0.9" stroke="black"/>
</g>
<defs>
<filter id="filter0_dd_108_80" x="-412" y="-332" width="2438.92" height="1745.44" filterUnits="userSpaceOnUse" color-interpolation-filters="sRGB">
<feFlood flood-opacity="0" result="BackgroundImageFix"/>
<feColorMatrix in="SourceAlpha" type="matrix" values="0 0 0 0 0 0 0 0 0 0 0 0 0 0 0 0 0 0 127 0" result="hardAlpha"/>
<feOffset dy="4"/>
<feGaussianBlur stdDeviation="2"/>
<feComposite in2="hardAlpha" operator="out"/>
<feColorMatrix type="matrix" values="0 0 0 0 0 0 0 0 0 0 0 0 0 0 0 0 0 0 0.25 0"/>
<feBlend mode="normal" in2="BackgroundImageFix" result="effect1_dropShadow_108_80"/>
<feColorMatrix in="SourceAlpha" type="matrix" values="0 0 0 0 0 0 0 0 0 0 0 0 0 0 0 0 0 0 127 0" result="hardAlpha"/>
<feOffset dy="125"/>
<feGaussianBlur stdDeviation="85"/>
<feComposite in2="hardAlpha" operator="out"/>
<feColorMatrix type="matrix" values="0 0 0 0 1 0 0 0 0 0.96 0 0 0 0 0 0 0 0 0.21 0"/>
<feBlend mode="normal" in2="effect1_dropShadow_108_80" result="effect2_dropShadow_108_80"/>
<feBlend mode="normal" in="SourceGraphic" in2="effect2_dropShadow_108_80" result="shape"/>
</filter>
</defs>
</svg>
